<?xml version="1.0" encoding="UTF-8"?>
<!DOCTYPE svg PUBLIC "-//W3C//DTD SVG 1.1//EN" "http://www.w3.org/Graphics/SVG/1.1/DTD/svg11.dtd">
<svg xmlns="http://www.w3.org/2000/svg" version="1.1" width="128px" height="128px" style="shape-rendering:geometricPrecision; text-rendering:geometricPrecision; image-rendering:optimizeQuality; fill-rule:evenodd; clip-rule:evenodd" xmlns:xlink="http://www.w3.org/1999/xlink">
<g><path style="opacity:0.842" fill="#000000" d="M 52.5,5.5 C 88.3107,2.50486 111.144,18.1715 121,52.5C 124.48,88.3341 108.98,111.167 74.5,121C 38.6659,124.48 15.8325,108.98 6,74.5C 2.72468,38.6428 18.2247,15.6428 52.5,5.5 Z M 53.5,12.5 C 84.8412,9.9063 105.008,23.573 114,53.5C 117.077,84.8628 103.577,105.029 73.5,114C 42.1372,117.077 21.9705,103.577 13,73.5C 10.0412,42.0521 23.5412,21.7188 53.5,12.5 Z"/></g>
<g><path style="opacity:0.813" fill="#000000" d="M 83.5,47.5 C 87.0089,48.4742 88.1756,50.8075 87,54.5C 79.1355,62.0302 71.6355,69.8635 64.5,78C 62.5,78.6667 60.5,78.6667 58.5,78C 53.6457,72.6468 48.9791,67.1468 44.5,61.5C 45.1667,59.5 46.5,58.1667 48.5,57.5C 52.7813,61.4437 57.1146,65.4437 61.5,69.5C 69.2418,62.4249 76.5751,55.0915 83.5,47.5 Z"/></g>
</svg>
