<?xml version="1.0" encoding="UTF-8"?>
<!DOCTYPE svg PUBLIC "-//W3C//DTD SVG 1.1//EN" "http://www.w3.org/Graphics/SVG/1.1/DTD/svg11.dtd">
<svg xmlns="http://www.w3.org/2000/svg" version="1.1" width="50px" height="50px" style="shape-rendering:geometricPrecision; text-rendering:geometricPrecision; image-rendering:optimizeQuality; fill-rule:evenodd; clip-rule:evenodd" xmlns:xlink="http://www.w3.org/1999/xlink">
<g><path style="opacity:0.615" fill="#000000" d="M 17.5,1.5 C 41.1541,0.318958 50.6541,11.319 46,34.5C 38.7573,46.8068 28.2573,50.6402 14.5,46C 2.19317,38.7573 -1.64016,28.2573 3,14.5C 6.16246,8.16411 10.9958,3.83077 17.5,1.5 Z M 18.5,4.5 C 36.9488,3.44852 45.4488,12.1152 44,30.5C 38.1981,42.9824 28.6981,47.1491 15.5,43C 4.9871,36.4639 1.82043,27.2972 6,15.5C 9.1476,10.5094 13.3143,6.84275 18.5,4.5 Z"/></g>
<g><path style="opacity:0.595" fill="#000000" d="M 15.5,15.5 C 16.552,15.3505 17.552,15.5172 18.5,16C 20.3501,18.0176 22.3501,19.8509 24.5,21.5C 26.6499,19.8509 28.6499,18.0176 30.5,16C 31.448,15.5172 32.448,15.3505 33.5,15.5C 33.6495,16.552 33.4828,17.552 33,18.5C 30.9824,20.3501 29.1491,22.3501 27.5,24.5C 29.1491,26.6499 30.9824,28.6499 33,30.5C 33.4828,31.448 33.6495,32.448 33.5,33.5C 32.448,33.6495 31.448,33.4828 30.5,33C 28.6499,30.9824 26.6499,29.1491 24.5,27.5C 22.3501,29.1491 20.3501,30.9824 18.5,33C 17.552,33.4828 16.552,33.6495 15.5,33.5C 15.3505,32.448 15.5172,31.448 16,30.5C 18.0176,28.6499 19.8509,26.6499 21.5,24.5C 19.8509,22.3501 18.0176,20.3501 16,18.5C 15.5172,17.552 15.3505,16.552 15.5,15.5 Z"/></g>
</svg>
