<?xml version="1.0" encoding="UTF-8"?>
<!DOCTYPE svg PUBLIC "-//W3C//DTD SVG 1.1//EN" "http://www.w3.org/Graphics/SVG/1.1/DTD/svg11.dtd">
<svg xmlns="http://www.w3.org/2000/svg" version="1.1" width="60px" height="60px" style="shape-rendering:geometricPrecision; text-rendering:geometricPrecision; image-rendering:optimizeQuality; fill-rule:evenodd; clip-rule:evenodd" xmlns:xlink="http://www.w3.org/1999/xlink">
<g><path style="opacity:0.706" fill="#000000" d="M 59.5,4.5 C 59.5,6.16667 59.5,7.83333 59.5,9.5C 58.5416,9.9528 57.7083,10.6195 57,11.5C 49.4605,5.89352 50.2938,3.56019 59.5,4.5 Z"/></g>
<g><path style="opacity:0.966" fill="#000000" d="M 8.5,7.5 C 20.8378,7.33346 33.1712,7.50012 45.5,8C 41.8333,11.6667 38.1667,15.3333 34.5,19C 26.8406,19.4997 19.1739,19.6664 11.5,19.5C 11.5,28.8333 11.5,38.1667 11.5,47.5C 23.5,47.5 35.5,47.5 47.5,47.5C 47.3336,39.8261 47.5003,32.1594 48,24.5C 49,23.5 50,22.5 51,21.5C 51.8181,31.4107 51.6515,41.2441 50.5,51C 36.2585,51.8229 22.0918,51.6562 8,50.5C 7.18508,36.092 7.35175,21.7586 8.5,7.5 Z"/></g>
<g><path style="opacity:0.869" fill="#000000" d="M 49.5,7.5 C 51.6298,9.12706 53.6298,10.9604 55.5,13C 48.1667,20.3333 40.8333,27.6667 33.5,35C 31.5273,35.4955 29.5273,35.6621 27.5,35.5C 27.3379,33.4727 27.5045,31.4727 28,29.5C 35.3692,22.2982 42.5359,14.9649 49.5,7.5 Z"/></g>
</svg>
