<?xml version="1.0" encoding="UTF-8"?>
<!DOCTYPE svg PUBLIC "-//W3C//DTD SVG 1.1//EN" "http://www.w3.org/Graphics/SVG/1.1/DTD/svg11.dtd">
<svg xmlns="http://www.w3.org/2000/svg" version="1.1" width="48px" height="48px" style="shape-rendering:geometricPrecision; text-rendering:geometricPrecision; image-rendering:optimizeQuality; fill-rule:evenodd; clip-rule:evenodd" xmlns:xlink="http://www.w3.org/1999/xlink">
<g><path style="opacity:0.72" fill="#000000" d="M 31.5,4.5 C 40.3284,3.16072 43.8284,6.82738 42,15.5C 33.8333,23.6667 25.6667,31.8333 17.5,40C 13.2972,41.5691 8.96386,42.4024 4.5,42.5C 4.59759,38.0361 5.43093,33.7028 7,29.5C 15.369,21.2983 23.5357,12.965 31.5,4.5 Z M 33.5,8.5 C 38.1585,8.01463 39.4919,9.84796 37.5,14C 33.9652,13.6454 32.6318,11.8121 33.5,8.5 Z M 27.5,14.5 C 30.3228,15.1476 31.8228,16.8142 32,19.5C 26.5,25 21,30.5 15.5,36C 13.5643,36.813 11.5643,37.313 9.5,37.5C 9.68701,35.4357 10.187,33.4357 11,31.5C 16.7029,25.9647 22.2029,20.2981 27.5,14.5 Z"/></g>
</svg>
