<?xml version="1.0" encoding="UTF-8"?>
<!DOCTYPE svg PUBLIC "-//W3C//DTD SVG 1.1//EN" "http://www.w3.org/Graphics/SVG/1.1/DTD/svg11.dtd">
<svg xmlns="http://www.w3.org/2000/svg" version="1.1" width="50px" height="50px" style="shape-rendering:geometricPrecision; text-rendering:geometricPrecision; image-rendering:optimizeQuality; fill-rule:evenodd; clip-rule:evenodd" xmlns:xlink="http://www.w3.org/1999/xlink">
<g><path style="opacity:0.703" fill="#000000" d="M 20.5,3.5 C 27.0653,2.42195 29.232,5.08862 27,11.5C 26.4427,13.6147 25.6094,15.6147 24.5,17.5C 29.7176,18.189 34.8843,18.8557 40,19.5C 42.3139,25.2431 42.9806,31.2431 42,37.5C 41.1956,39.8834 40.0289,42.05 38.5,44C 29.8333,44.6667 21.1667,44.6667 12.5,44C 10.3333,43.1667 8.83333,41.6667 8,39.5C 7.33333,33.5 7.33333,27.5 8,21.5C 12.423,15.6454 16.5897,9.64545 20.5,3.5 Z M 22.5,6.5 C 23.5862,6.61998 24.2528,7.28665 24.5,8.5C 23.1486,12.5264 21.8152,16.5264 20.5,20.5C 26.1448,21.1342 31.8114,21.4676 37.5,21.5C 39.4287,25.6898 40.0954,30.0232 39.5,34.5C 38.1319,36.637 37.1319,38.9703 36.5,41.5C 28.8022,42.9283 21.1356,42.7616 13.5,41C 11.5125,39.6811 10.3459,37.8477 10,35.5C 9.30407,31.0946 9.63741,26.7612 11,22.5C 15.052,17.288 18.8854,11.9546 22.5,6.5 Z"/></g>
</svg>
