<?xml version="1.0" encoding="UTF-8"?>
<!DOCTYPE svg PUBLIC "-//W3C//DTD SVG 1.1//EN" "http://www.w3.org/Graphics/SVG/1.1/DTD/svg11.dtd">
<svg xmlns="http://www.w3.org/2000/svg" version="1.1" width="100px" height="100px" style="shape-rendering:geometricPrecision; text-rendering:geometricPrecision; image-rendering:optimizeQuality; fill-rule:evenodd; clip-rule:evenodd" xmlns:xlink="http://www.w3.org/1999/xlink">
<g><path style="opacity:0.771" fill="#000000" d="M 39.5,3.5 C 67.9223,0.452161 86.4223,12.4522 95,39.5C 98.5361,67.9428 86.7027,86.4428 59.5,95C 31.0572,98.5361 12.5572,86.7027 4,59.5C 0.672469,31.0314 12.5058,12.3647 39.5,3.5 Z M 40.5,8.5 C 65.663,5.98692 82.163,16.6536 90,40.5C 92.994,65.6944 82.494,82.1944 58.5,90C 33.3056,92.994 16.8056,82.494 9,58.5C 6.14218,33.182 16.6422,16.5153 40.5,8.5 Z"/></g>
<g><path style="opacity:0.972" fill="#000000" d="M 27.5,35.5 C 42.1667,35.5 56.8333,35.5 71.5,35.5C 71.5,36.8333 71.5,38.1667 71.5,39.5C 56.8295,39.6666 42.1629,39.4999 27.5,39C 26.3157,37.8545 26.3157,36.6879 27.5,35.5 Z"/></g>
<g><path style="opacity:0.972" fill="#000000" d="M 27.5,47.5 C 42.1667,47.5 56.8333,47.5 71.5,47.5C 71.5,48.8333 71.5,50.1667 71.5,51.5C 56.8295,51.6666 42.1629,51.4999 27.5,51C 26.3157,49.8545 26.3157,48.6879 27.5,47.5 Z"/></g>
<g><path style="opacity:0.972" fill="#000000" d="M 27.5,59.5 C 42.1667,59.5 56.8333,59.5 71.5,59.5C 71.5,60.8333 71.5,62.1667 71.5,63.5C 56.8295,63.6666 42.1629,63.4999 27.5,63C 26.3157,61.8545 26.3157,60.6879 27.5,59.5 Z"/></g>
</svg>
