<?xml version="1.0" encoding="UTF-8"?>
<!DOCTYPE svg PUBLIC "-//W3C//DTD SVG 1.1//EN" "http://www.w3.org/Graphics/SVG/1.1/DTD/svg11.dtd">
<svg xmlns="http://www.w3.org/2000/svg" version="1.1" width="64px" height="64px" style="shape-rendering:geometricPrecision; text-rendering:geometricPrecision; image-rendering:optimizeQuality; fill-rule:evenodd; clip-rule:evenodd" xmlns:xlink="http://www.w3.org/1999/xlink">
<g><path style="opacity:0.775" fill="#000000" d="M 30.5,5.5 C 50.6499,3.48275 59.4833,12.4828 57,32.5C 51.9395,43.4464 43.4395,47.613 31.5,45C 28.9664,44.4837 26.7998,43.317 25,41.5C 19.6667,46.8333 14.3333,52.1667 9,57.5C 7.83333,56.3333 6.66667,55.1667 5.5,54C 10.8333,48.6667 16.1667,43.3333 21.5,38C 13.7305,24.0741 16.7305,13.2407 30.5,5.5 Z M 32.5,10.5 C 49.7649,10.2567 55.5982,18.2567 50,34.5C 43.7488,41.0107 36.5821,42.1773 28.5,38C 21.9893,31.7488 20.8227,24.5821 25,16.5C 27.1141,13.8792 29.6141,11.8792 32.5,10.5 Z"/></g>
</svg>
