<?xml version="1.0" encoding="UTF-8"?>
<!DOCTYPE svg PUBLIC "-//W3C//DTD SVG 1.1//EN" "http://www.w3.org/Graphics/SVG/1.1/DTD/svg11.dtd">
<svg xmlns="http://www.w3.org/2000/svg" version="1.1" width="48px" height="48px" style="shape-rendering:geometricPrecision; text-rendering:geometricPrecision; image-rendering:optimizeQuality; fill-rule:evenodd; clip-rule:evenodd" xmlns:xlink="http://www.w3.org/1999/xlink">
<g><path style="opacity:0.704" fill="#000000" d="M 19.5,6.5 C 22.1873,6.33591 24.854,6.50258 27.5,7C 28.1905,8.06743 28.6905,9.23409 29,10.5C 32.2056,8.87558 34.8723,9.54224 37,12.5C 37.7429,14.4406 37.5762,16.2739 36.5,18C 37.7659,18.3095 38.9326,18.8095 40,19.5C 40.6667,22.1667 40.6667,24.8333 40,27.5C 38.9326,28.1905 37.7659,28.6905 36.5,29C 38.1244,32.2056 37.4578,34.8723 34.5,37C 32.5594,37.7429 30.7261,37.5762 29,36.5C 28.6905,37.7659 28.1905,38.9326 27.5,40C 24.8333,40.6667 22.1667,40.6667 19.5,40C 18.8095,38.9326 18.3095,37.7659 18,36.5C 14.7944,38.1244 12.1277,37.4578 10,34.5C 9.25711,32.5594 9.42378,30.7261 10.5,29C 9.23409,28.6905 8.06743,28.1905 7,27.5C 6.33333,24.8333 6.33333,22.1667 7,19.5C 8.06743,18.8095 9.23409,18.3095 10.5,18C 8.87558,14.7944 9.54224,12.1277 12.5,10C 14.4406,9.25711 16.2739,9.42378 18,10.5C 18.4101,9.0993 18.9101,7.76597 19.5,6.5 Z M 22.5,10.5 C 23.8437,12.9857 26.0104,14.6524 29,15.5C 30.2613,15.2409 31.2613,14.5742 32,13.5C 32.5,14 33,14.5 33.5,15C 30.8486,18.8993 31.8486,21.7327 36.5,23.5C 31.8486,25.2673 30.8486,28.1007 33.5,32C 33,32.5 32.5,33 32,33.5C 28.1007,30.8486 25.2673,31.8486 23.5,36.5C 21.7327,31.8486 18.8993,30.8486 15,33.5C 14.5,33 14,32.5 13.5,32C 16.1514,28.1007 15.1514,25.2673 10.5,23.5C 15.1514,21.7327 16.1514,18.8993 13.5,15C 14,14.5 14.5,14 15,13.5C 17.2436,15.9938 19.5769,15.9938 22,13.5C 22.4828,12.552 22.6495,11.552 22.5,10.5 Z M 21.5,20.5 C 26.1585,20.0146 27.4919,21.848 25.5,26C 20.7282,26.8104 19.3948,24.9771 21.5,20.5 Z"/></g>
<g><path style="opacity:0.748" fill="#000000" d="M 20.5,16.5 C 29.8504,16.3654 32.517,20.532 28.5,29C 19.9562,32.3224 16.1229,29.4891 17,20.5C 17.6897,18.6498 18.8564,17.3164 20.5,16.5 Z M 21.5,20.5 C 19.3948,24.9771 20.7282,26.8104 25.5,26C 27.4919,21.848 26.1585,20.0146 21.5,20.5 Z"/></g>
</svg>
