<?xml version="1.0" encoding="UTF-8"?>
<!DOCTYPE svg PUBLIC "-//W3C//DTD SVG 1.1//EN" "http://www.w3.org/Graphics/SVG/1.1/DTD/svg11.dtd">
<svg xmlns="http://www.w3.org/2000/svg" version="1.1" width="80px" height="80px" style="shape-rendering:geometricPrecision; text-rendering:geometricPrecision; image-rendering:optimizeQuality; fill-rule:evenodd; clip-rule:evenodd" xmlns:xlink="http://www.w3.org/1999/xlink">
<g><path style="opacity:0.955" fill="#000000" d="M 14.5,8.5 C 31.1667,8.5 47.8333,8.5 64.5,8.5C 64.6666,28.1695 64.5,47.8362 64,67.5C 63.1667,68.3333 62.3333,69.1667 61.5,70C 44.8333,70.6667 28.1667,70.6667 11.5,70C 10.6667,69.1667 9.83333,68.3333 9,67.5C 8.50137,63.8484 8.3347,60.1817 8.5,56.5C 10.5,56.5 12.5,56.5 14.5,56.5C 14.5,40.5 14.5,24.5 14.5,8.5 Z M 16.5,10.5 C 31.8333,10.5 47.1667,10.5 62.5,10.5C 62.6666,28.1698 62.4999,45.8365 62,63.5C 60.9365,67.2946 58.4365,68.4612 54.5,67C 52.8627,63.7154 52.1961,60.2154 52.5,56.5C 40.5,56.5 28.5,56.5 16.5,56.5C 16.5,41.1667 16.5,25.8333 16.5,10.5 Z M 10.5,58.5 C 23.8333,58.5 37.1667,58.5 50.5,58.5C 50.2161,61.7766 50.5495,64.9433 51.5,68C 45.5,68.1667 39.5,68.3333 33.5,68.5C 26.4244,68.6104 19.4244,68.1104 12.5,67C 11.0085,64.3788 10.3418,61.5455 10.5,58.5 Z"/></g>
<g><path style="opacity:0.43" fill="#000000" d="M 25.5,21.5 C 26.8333,21.5 28.1667,21.5 29.5,21.5C 29.5,22.8333 29.5,24.1667 29.5,25.5C 28.1667,25.5 26.8333,25.5 25.5,25.5C 25.5,24.1667 25.5,22.8333 25.5,21.5 Z"/></g>
<g><path style="opacity:1" fill="#000000" d="M 32.5,22.5 C 39.1998,22.17 45.8665,22.5033 52.5,23.5C 49.1667,23.8333 45.8333,24.1667 42.5,24.5C 38.7614,24.4864 35.428,23.8197 32.5,22.5 Z"/></g>
<g><path style="opacity:0.43" fill="#000000" d="M 25.5,29.5 C 26.8333,29.5 28.1667,29.5 29.5,29.5C 29.5,30.8333 29.5,32.1667 29.5,33.5C 28.1667,33.5 26.8333,33.5 25.5,33.5C 25.5,32.1667 25.5,30.8333 25.5,29.5 Z"/></g>
<g><path style="opacity:1" fill="#000000" d="M 32.5,30.5 C 39.1998,30.17 45.8665,30.5033 52.5,31.5C 49.1667,31.8333 45.8333,32.1667 42.5,32.5C 38.7614,32.4864 35.428,31.8197 32.5,30.5 Z"/></g>
<g><path style="opacity:0.43" fill="#000000" d="M 25.5,37.5 C 26.8333,37.5 28.1667,37.5 29.5,37.5C 29.5,38.8333 29.5,40.1667 29.5,41.5C 28.1667,41.5 26.8333,41.5 25.5,41.5C 25.5,40.1667 25.5,38.8333 25.5,37.5 Z"/></g>
<g><path style="opacity:1" fill="#000000" d="M 32.5,38.5 C 39.1998,38.17 45.8665,38.5033 52.5,39.5C 49.1667,39.8333 45.8333,40.1667 42.5,40.5C 38.7614,40.4864 35.428,39.8197 32.5,38.5 Z"/></g>
<g><path style="opacity:0.43" fill="#000000" d="M 25.5,45.5 C 26.8333,45.5 28.1667,45.5 29.5,45.5C 29.5,46.8333 29.5,48.1667 29.5,49.5C 28.1667,49.5 26.8333,49.5 25.5,49.5C 25.5,48.1667 25.5,46.8333 25.5,45.5 Z"/></g>
<g><path style="opacity:1" fill="#000000" d="M 32.5,46.5 C 39.1998,46.17 45.8665,46.5033 52.5,47.5C 49.1667,47.8333 45.8333,48.1667 42.5,48.5C 38.7614,48.4864 35.428,47.8197 32.5,46.5 Z"/></g>
<g><path style="opacity:0.766" fill="#000000" d="M 11.5,60.5 C 13.337,60.6395 13.6704,61.3061 12.5,62.5C 11.7025,62.0431 11.3691,61.3764 11.5,60.5 Z"/></g>
<g><path style="opacity:0.766" fill="#000000" d="M 15.5,60.5 C 17.337,60.6395 17.6704,61.3061 16.5,62.5C 15.7025,62.0431 15.3691,61.3764 15.5,60.5 Z"/></g>
<g><path style="opacity:0.766" fill="#000000" d="M 19.5,60.5 C 21.337,60.6395 21.6704,61.3061 20.5,62.5C 19.7025,62.0431 19.3691,61.3764 19.5,60.5 Z"/></g>
<g><path style="opacity:0.766" fill="#000000" d="M 23.5,60.5 C 25.337,60.6395 25.6704,61.3061 24.5,62.5C 23.7025,62.0431 23.3691,61.3764 23.5,60.5 Z"/></g>
<g><path style="opacity:0.766" fill="#000000" d="M 27.5,60.5 C 29.337,60.6395 29.6704,61.3061 28.5,62.5C 27.7025,62.0431 27.3691,61.3764 27.5,60.5 Z"/></g>
<g><path style="opacity:0.766" fill="#000000" d="M 31.5,60.5 C 33.337,60.6395 33.6704,61.3061 32.5,62.5C 31.7025,62.0431 31.3691,61.3764 31.5,60.5 Z"/></g>
<g><path style="opacity:0.766" fill="#000000" d="M 35.5,60.5 C 37.337,60.6395 37.6704,61.3061 36.5,62.5C 35.7025,62.0431 35.3691,61.3764 35.5,60.5 Z"/></g>
<g><path style="opacity:0.766" fill="#000000" d="M 39.5,60.5 C 41.337,60.6395 41.6704,61.3061 40.5,62.5C 39.7025,62.0431 39.3691,61.3764 39.5,60.5 Z"/></g>
<g><path style="opacity:0.766" fill="#000000" d="M 43.5,60.5 C 45.337,60.6395 45.6704,61.3061 44.5,62.5C 43.7025,62.0431 43.3691,61.3764 43.5,60.5 Z"/></g>
<g><path style="opacity:0.766" fill="#000000" d="M 47.5,60.5 C 49.337,60.6395 49.6704,61.3061 48.5,62.5C 47.7025,62.0431 47.3691,61.3764 47.5,60.5 Z"/></g>
</svg>
