<?xml version="1.0" encoding="UTF-8"?>
<!DOCTYPE svg PUBLIC "-//W3C//DTD SVG 1.1//EN" "http://www.w3.org/Graphics/SVG/1.1/DTD/svg11.dtd">
<svg xmlns="http://www.w3.org/2000/svg" version="1.1" width="50px" height="50px" style="shape-rendering:geometricPrecision; text-rendering:geometricPrecision; image-rendering:optimizeQuality; fill-rule:evenodd; clip-rule:evenodd" xmlns:xlink="http://www.w3.org/1999/xlink">
<g><path style="opacity:0.962" fill="#000000" d="M 17.5,1.5 C 22.1667,1.5 26.8333,1.5 31.5,1.5C 31.5,3.16667 31.5,4.83333 31.5,6.5C 35.226,6.17744 38.8927,6.51078 42.5,7.5C 40.5435,20.6547 39.8768,33.988 40.5,47.5C 29.8333,47.5 19.1667,47.5 8.5,47.5C 9.1232,33.988 8.45653,20.6547 6.5,7.5C 10.1073,6.51078 13.774,6.17744 17.5,6.5C 17.5,4.83333 17.5,3.16667 17.5,1.5 Z M 20.5,3.5 C 23.1873,3.33591 25.854,3.50258 28.5,4C 28.9574,4.41395 29.2907,4.91395 29.5,5.5C 26.1667,6.83333 22.8333,6.83333 19.5,5.5C 19.8627,4.81654 20.1961,4.14987 20.5,3.5 Z M 10.5,8.5 C 19.8333,8.5 29.1667,8.5 38.5,8.5C 38.6665,20.5046 38.4999,32.5046 38,44.5C 29,45.8333 20,45.8333 11,44.5C 10.5001,32.5046 10.3335,20.5046 10.5,8.5 Z"/></g>
<g><path style="opacity:0.983" fill="#000000" d="M 17.5,13.5 C 18.8261,17.6139 19.4927,22.1139 19.5,27C 19.1667,31.5 18.8333,36 18.5,40.5C 17.5018,31.5246 17.1685,22.5246 17.5,13.5 Z"/></g>
<g><path style="opacity:0.983" fill="#000000" d="M 23.5,13.5 C 24.8261,17.6139 25.4927,22.1139 25.5,27C 25.1667,31.5 24.8333,36 24.5,40.5C 23.5018,31.5246 23.1685,22.5246 23.5,13.5 Z"/></g>
<g><path style="opacity:0.983" fill="#000000" d="M 29.5,13.5 C 30.8261,17.6139 31.4927,22.1139 31.5,27C 31.1667,31.5 30.8333,36 30.5,40.5C 29.5018,31.5246 29.1685,22.5246 29.5,13.5 Z"/></g>
</svg>
